HIERARCHY
ROOT hip
{
  OFFSET 5.18325 78.3147 234.976
  CHANNELS 6 Xposition Yposition Zposition Zrotation Xrotation Yrotation
  JOINT abdomen
  {
    OFFSET 0 20.6881 -0.73152
    CHANNELS 3 Zrotation Xrotation Yrotation
    JOINT chest
    {
      OFFSET 0 11.7043 -0.48768
      CHANNELS 3 Zrotation Xrotation Yrotation
      JOINT neck
      {
        OFFSET 0 22.1894 -2.19456
        CHANNELS 3 Zrotation Xrotation Yrotation
        JOINT head
        {
          OFFSET -0.24384 7.07133 1.2192
          CHANNELS 3 Zrotation Xrotation Yrotation
          JOINT leftEye
          {
            OFFSET 4.14528 8.04674 8.04672
            CHANNELS 3 Zrotation Xrotation Yrotation
            End Site
            {
              OFFSET 1 0 0
            }
          }
          JOINT rightEye
          {
            OFFSET -3.6576 8.04674 8.04672
            CHANNELS 3 Zrotation Xrotation Yrotation
            End Site
            {
              OFFSET 1 0 0
            }
          }
        }
      }
      JOINT rCollar
      {
        OFFSET -2.68224 19.2634 -4.8768
        CHANNELS 3 Zrotation Xrotation Yrotation
        JOINT rShldr
        {
          OFFSET -8.77824 -1.95073 1.46304
          CHANNELS 3 Zrotation Xrotation Yrotation
          JOINT rForeArm
          {
            OFFSET -28.1742 -1.7115 0.48768
            CHANNELS 3 Zrotation Xrotation Yrotation
            JOINT rHand
            {
              OFFSET -22.5879 0.773209 7.07136
              CHANNELS 3 Zrotation Xrotation Yrotation
              JOINT rThumb1
              {
                OFFSET -1.2192 -0.487915 3.41376
                CHANNELS 3 Zrotation Xrotation Yrotation
                JOINT rThumb2
                {
                  OFFSET -3.37035 -0.52449 3.41376
                  CHANNELS 3 Zrotation Xrotation Yrotation
                  End Site
                  {
                    OFFSET -1.78271 -1.18214 1.43049
                  }
                }
              }
              JOINT rIndex1
              {
                OFFSET -7.75947 0.938293 5.60832
                CHANNELS 3 Zrotation Xrotation Yrotation
                JOINT rIndex2
                {
                  OFFSET -2.54057 -0.884171 1.56538
                  CHANNELS 3 Zrotation Xrotation Yrotation
                  End Site
                  {
                    OFFSET -1.62519 -0.234802 1.16502
                  }
                }
              }
              JOINT rMid1
              {
                OFFSET -8.24714 1.18213 3.41376
                CHANNELS 3 Zrotation Xrotation Yrotation
                JOINT rMid2
                {
                  OFFSET -3.10165 -0.590103 1.0647
                  CHANNELS 3 Zrotation Xrotation Yrotation
                  End Site
                  {
                    OFFSET -2.48547 -0.328903 0.83742
                  }
                }
              }
              JOINT rRing1
              {
                OFFSET -8.82822 0.546677 1.51678
                CHANNELS 3 Zrotation Xrotation Yrotation
                JOINT rRing2
                {
                  OFFSET -2.60934 -0.819778 -0.0198488
                  CHANNELS 3 Zrotation Xrotation Yrotation
                  End Site
                  {
                    OFFSET -2.33842 -0.294052 0.168128
                  }
                }
              }
              JOINT rPinky1
              {
                OFFSET -8.27202 -0.0477905 -0.4584
                CHANNELS 3 Zrotation Xrotation Yrotation
                JOINT rPinky2
                {
                  OFFSET -1.82734 -0.647385 -0.700984
                  CHANNELS 3 Zrotation Xrotation Yrotation
                  End Site
                  {
                    OFFSET -1.69225 -0.51767 -0.607171
                  }
                }
              }
            }
          }
        }
      }
      JOINT lCollar
      {
        OFFSET 2.68224 19.2634 -4.8768
        CHANNELS 3 Zrotation Xrotation Yrotation
        JOINT lShldr
        {
          OFFSET 8.77824 -1.95073 1.46304
          CHANNELS 3 Zrotation Xrotation Yrotation
          JOINT lForeArm
          {
            OFFSET 28.1742 -1.7115 0.48768
            CHANNELS 3 Zrotation Xrotation Yrotation
            JOINT lHand
            {
              OFFSET 22.5879 0.773209 7.07136
              CHANNELS 3 Zrotation Xrotation Yrotation
              JOINT lThumb1
              {
                OFFSET 1.2192 -0.487915 3.41376
                CHANNELS 3 Zrotation Xrotation Yrotation
                JOINT lThumb2
                {
                  OFFSET 3.37035 -0.52449 3.41376
                  CHANNELS 3 Zrotation Xrotation Yrotation
                  End Site
                  {
                    OFFSET 1.78271 -1.18214 1.43049
                  }
                }
              }
              JOINT lIndex1
              {
                OFFSET 7.75947 0.938293 5.60832
                CHANNELS 3 Zrotation Xrotation Yrotation
                JOINT lIndex2
                {
                  OFFSET 2.54057 -0.884171 1.56538
                  CHANNELS 3 Zrotation Xrotation Yrotation
                  End Site
                  {
                    OFFSET 1.62519 -0.234802 1.16502
                  }
                }
              }
              JOINT lMid1
              {
                OFFSET 8.24714 1.18213 3.41376
                CHANNELS 3 Zrotation Xrotation Yrotation
                JOINT lMid2
                {
                  OFFSET 3.10165 -0.590103 1.0647
                  CHANNELS 3 Zrotation Xrotation Yrotation
                  End Site
                  {
                    OFFSET 2.48547 -0.328903 0.83742
                  }
                }
              }
              JOINT lRing1
              {
                OFFSET 8.82822 0.546677 1.51678
                CHANNELS 3 Zrotation Xrotation Yrotation
                JOINT lRing2
                {
                  OFFSET 2.60934 -0.819778 -0.0198488
                  CHANNELS 3 Zrotation Xrotation Yrotation
                  End Site
                  {
                    OFFSET 2.33842 -0.294052 0.168128
                  }
                }
              }
              JOINT lPinky1
              {
                OFFSET 8.27202 -0.0477905 -0.4584
                CHANNELS 3 Zrotation Xrotation Yrotation
                JOINT lPinky2
                {
                  OFFSET 1.82734 -0.647385 -0.700984
                  CHANNELS 3 Zrotation Xrotation Yrotation
                  End Site
                  {
                    OFFSET 1.69225 -0.51767 -0.607171
                  }
                }
              }
            }
          }
        }
      }
    }
  }
  JOINT rButtock
  {
    OFFSET -8.77824 4.35084 1.2192
    CHANNELS 3 Zrotation Xrotation Yrotation
    JOINT rThigh
    {
      OFFSET 0 -1.70687 -2.19456
      CHANNELS 3 Zrotation Xrotation Yrotation
      JOINT rShin
      {
        OFFSET 0 -36.8199 0.73152
        CHANNELS 3 Zrotation Xrotation Yrotation
        JOINT rFoot
        {
          OFFSET 0.73152 -45.1104 -5.12064
          CHANNELS 3 Zrotation Xrotation Yrotation
          End Site
          {
            OFFSET -1.1221 -3.69964 12.103
          }
        }
      }
    }
  }
  JOINT lButtock
  {
    OFFSET 8.77824 4.35084 1.2192
    CHANNELS 3 Zrotation Xrotation Yrotation
    JOINT lThigh
    {
      OFFSET 0 -1.70687 -2.19456
      CHANNELS 3 Zrotation Xrotation Yrotation
      JOINT lShin
      {
        OFFSET 0 -36.8199 0.73152
        CHANNELS 3 Zrotation Xrotation Yrotation
        JOINT lFoot
        {
          OFFSET -0.73152 -45.1104 -5.12064
          CHANNELS 3 Zrotation Xrotation Yrotation
          End Site
          {
            OFFSET 1.1221 -3.69964 12.103
          }
        }
      }
    }
  }
}
MOTION
Frames:	9
Frame Time:	0.00833333
-16.2793 83.0696 187.741 2.4998 0.00856453 -0.0474184 -3.29164 -0.00200238 -0.0897132 -0.910501 0.0108249 -0.157567 -3.81414e-014 -2.38542e-015 3.47873e-016 -1.1545e-013 -6.36111e-015 1.09176e-015 -0 0 0 -0 0 0 -1.92358e-014 -2.52363e-016 3.47873e-016 -4.0319e-013 -5.44794e-015 3.37934e-015 -6.97699e-012 1.90018e-012 1.59028e-013 -7.97254e-011 -3.04953e-012 6.52014e-013 -1.88081e-010 -2.49381e-012 1.78111e-012 -3.24815e-010 -4.30965e-012 3.07719e-012 -1.88073e-010 -2.49077e-012 1.76521e-012 7.73091 5.47488 0.417314 -1.88081e-010 -2.49375e-012 1.77793e-012 2.90554 0.965183 0.102902 -1.8807e-010 -2.49326e-012 1.77554e-012 10.2786 0.731801 0.0259123 -1.88082e-010 -2.49316e-012 1.77793e-012 2.22167 -0.733487 -0.20892 -1.93296e-014 -2.57022e-016 -4.96962e-017 -4.07299e-013 -5.53491e-015 2.18663e-015 -6.96293e-012 -2.26336e-012 1.20861e-013 -7.97268e-011 1.1201e-012 6.96541e-013 -1.88043e-010 -2.47912e-012 1.78111e-012 -3.24728e-010 -4.28103e-012 3.08037e-012 -1.88048e-010 -2.47845e-012 1.78111e-012 -7.73091 5.47488 -0.417314 -1.88044e-010 -2.47904e-012 1.77475e-012 -2.90554 0.965183 -0.102902 -1.88052e-010 -2.47845e-012 1.77634e-012 -10.2786 0.731801 -0.0259123 -1.88041e-010 -2.47805e-012 1.76521e-012 -2.22167 -0.733487 0.20892 -2.03217e-016 0 -3.88251e-019 -2.14015 -1.93291 0.0183611 -0.00781146 -2.07877 -0.0636679 -0.356525 4.00069 0.117366 2.03217e-016 0 3.88251e-019 -2.88041 -9.67722 0.33895 -0.0100228 11.9464 -0.261579 0.458181 -2.28009 -0.00592661 
-17.3947 78.2726 174.853 -3.02945 3.2977 43.3 2.87193 -5.6936 -0.27063 -0.117305 1.90082 -0.668509 1.67561 -0.755758 1.3482 0.293239 6.65862 0.695018 -0 0 0 -0 0 0 -2.02899e-014 -4.83752e-014 5.117e-014 16.5586 7.44038 2.83071 -3.18612 -1.28892 5.13591 -0.000124847 -0.740109 -0.10399 -4.21276e-011 -3.12874e-010 2.59535e-010 -7.21875e-011 -5.41386e-010 4.48841e-010 -4.21205e-011 -3.12872e-010 2.59521e-010 7.73091 5.47488 0.417314 -4.21294e-011 -3.12874e-010 2.59534e-010 2.90554 0.965183 0.102902 -4.21186e-011 -3.12873e-010 2.59531e-010 10.2786 0.731801 0.0259123 -4.21318e-011 -3.12873e-010 2.59536e-010 2.22167 -0.733487 -0.20892 -2.03555e-014 -4.83805e-014 5.08143e-014 -20.313 17.3512 -1.79636 5.4604 -2.79082 -8.16567 -0.1475 -8.53864 1.15249 2.65769e-010 2.21257e-010 -2.88122e-010 4.65347e-010 3.89681e-010 -4.88292e-010 2.65765e-010 2.21256e-010 -2.88117e-010 -7.73091 5.47488 -0.417314 2.65769e-010 2.21255e-010 -2.88125e-010 -2.90554 0.965183 -0.102902 2.6576e-010 2.21255e-010 -2.88124e-010 -10.2786 0.731801 -0.0259123 2.65771e-010 2.21256e-010 -2.88133e-010 -2.22167 -0.733487 0.20892 -2.03217e-016 0 -3.88251e-019 2.13224 -13.0104 3.24178 0.00439958 9.11514 0.0831813 -0.43354 -0.456955 -2.16214 2.03217e-016 0 3.88251e-019 -1.2683 -19.242 -0.806844 -0.0102767 26.3584 -0.494015 0.0978696 0.620384 -1.99888 
-17.5351 78.2113 174.449 -11.7987 0.173196 88.9425 9.3593 -11.7133 -0.459302 0.754696 3.8936 -1.20864 3.48726 -1.55809 2.77353 0.402016 13.6916 1.4678 -0 0 0 -0 0 0 -2.22712e-014 -9.84076e-014 1.17097e-013 33.2189 15.3694 5.99012 -6.31956 -2.6259 10.599 -0.00408787 -1.61249 -0.226633 2.98148e-011 -5.58449e-010 5.60307e-010 5.25978e-011 -9.66688e-010 9.69442e-010 2.98211e-011 -5.58448e-010 5.60295e-010 7.73091 5.47488 0.417314 2.98115e-011 -5.5845e-010 5.60308e-010 2.90554 0.965183 0.102902 2.98215e-011 -5.58448e-010 5.60304e-010 10.2786 0.731801 0.0259123 2.98076e-011 -5.58449e-010 5.60313e-010 2.22167 -0.733487 -0.20892 -2.23046e-014 -9.84131e-014 1.16786e-013 -40.3751 35.6643 -4.31461 10.3886 -5.56201 -16.877 0.0864313 -17.5336 2.45638 7.02586e-010 4.28331e-010 -5.96326e-010 1.22665e-009 7.55164e-010 -1.012e-009 7.02581e-010 4.28329e-010 -5.96316e-010 -7.73091 5.47488 -0.417314 7.02585e-010 4.28328e-010 -5.96326e-010 -2.90554 0.965183 -0.102902 7.02577e-010 4.28328e-010 -5.96324e-010 -10.2786 0.731801 -0.0259123 7.02587e-010 4.28328e-010 -5.96332e-010 -2.22167 -0.733487 0.20892 -2.03217e-016 0 -3.88251e-019 8.12983 -24.6112 7.11825 -0.0489972 20.9449 0.25179 -0.898236 -5.14007 -4.58054 2.03217e-016 0 3.88251e-019 -0.0293658 -29.2839 -2.1905 0.16287 41.5876 -0.856217 -0.0608077 3.76366 -4.17907 
-17.6826 78.1507 174.026 -15.2907 -8.6204 128.932 15.0865 -17.0759 -0.657441 1.57065 5.67872 -1.69762 5.13351 -2.26225 4.04741 0.368856 19.9637 2.20345 -0 0 0 -0 0 0 -2.23981e-014 -1.44621e-013 1.52814e-013 47.3313 22.0944 9.09339 -8.87317 -3.74268 15.4376 -0.00843928 -2.2203 -0.312177 2.49779e-010 -9.33633e-010 7.75043e-010 4.33068e-010 -1.61554e-009 1.34037e-009 2.49784e-010 -9.33633e-010 7.75032e-010 7.73091 5.47488 0.417314 2.49774e-010 -9.33634e-010 7.75046e-010 2.90554 0.965183 0.102902 2.49784e-010 -9.33633e-010 7.75041e-010 10.2786 0.731801 0.0259123 2.49769e-010 -9.33633e-010 7.75053e-010 2.22167 -0.733487 -0.20892 -2.24072e-014 -1.44627e-013 1.52542e-013 -55.9822 51.7826 -8.33274 14.0577 -7.69367 -24.7048 0.682386 -25.5721 3.79097 1.17339e-009 6.68729e-010 -8.67928e-010 2.0455e-009 1.17761e-009 -1.47104e-009 1.17339e-009 6.68724e-010 -8.67915e-010 -7.73091 5.47488 -0.417314 1.17339e-009 6.68723e-010 -8.67925e-010 -2.90554 0.965183 -0.102902 1.17339e-009 6.68723e-010 -8.67923e-010 -10.2786 0.731801 -0.0259123 1.1734e-009 6.68723e-010 -8.67931e-010 -2.22167 -0.733487 0.20892 -2.03217e-016 0 -3.88251e-019 15.0918 -34.68 11.5031 -0.165258 31.5022 0.438232 -1.65884 -9.30826 -6.81047 2.03217e-016 0 3.88251e-019 0.530957 -38.3163 -3.76545 0.612876 55.1763 -1.42927 -0.0157971 6.38732 -6.02196 
-17.8461 78.176 173.614 -12.6196 -15.3302 157.38 18.9849 -20.7967 -0.858829 2.17571 6.94657 -2.05215 6.29001 -2.72585 4.9399 0.357381 24.3454 2.73186 -0 0 0 -0 0 0 -1.78886e-014 -1.81287e-013 1.13009e-013 56.8643 26.036 11.4323 -10.4698 -4.43183 18.6855 -0.00576115 -2.1667 -0.304656 8.39797e-010 -1.63284e-009 7.74688e-010 1.45275e-009 -2.82326e-009 1.33711e-009 8.39802e-010 -1.63284e-009 7.74678e-010 7.73091 5.47488 0.417314 8.39791e-010 -1.63284e-009 7.74691e-010 2.90554 0.965183 0.102902 8.398e-010 -1.63284e-009 7.74687e-010 10.2786 0.731801 0.0259123 8.39786e-010 -1.63284e-009 7.747e-010 2.22167 -0.733487 -0.20892 -1.78938e-014 -1.81296e-013 1.12761e-013 -63.708 62.5966 -14.0336 16.2123 -8.88589 -30.1219 1.37003 -31.2602 4.89422 1.72918e-009 9.92432e-010 -1.04803e-009 3.0082e-009 1.74244e-009 -1.76836e-009 1.72918e-009 9.92427e-010 -1.04801e-009 -7.73091 5.47488 -0.417314 1.72918e-009 9.92425e-010 -1.04802e-009 -2.90554 0.965183 -0.102902 1.72918e-009 9.92425e-010 -1.04802e-009 -10.2786 0.731801 -0.0259123 1.72919e-009 9.92425e-010 -1.04803e-009 -2.22167 -0.733487 0.20892 -2.03217e-016 0 -3.88251e-019 21.1516 -41.3635 15.4837 -0.29897 38.8793 0.611215 -2.41356 -12.2531 -8.46869 2.03217e-016 0 3.88251e-019 0.419481 -44.8722 -5.27074 1.31628 64.6684 -2.19015 0.0524678 7.754 -6.9707 
-18.0035 78.1755 173.205 -10.2073 -17.403 168.992 20.3722 -22.2087 -1.05504 2.45785 7.4999 -2.21597 6.73251 -2.86787 5.29771 0.563659 26.0949 2.88493 -0 0 0 -0 0 0 -1.08881e-014 -2.17966e-013 -7.81499e-014 60.8757 26.1797 12.2721 -10.9114 -4.59155 19.6437 0.00630903 -1.05709 -0.148623 2.30423e-009 -3.24849e-009 4.79259e-010 3.9834e-009 -5.61293e-009 8.1849e-010 2.30424e-009 -3.24849e-009 4.7925e-010 7.73091 5.47488 0.417314 2.30423e-009 -3.24849e-009 4.79259e-010 2.90554 0.965183 0.102902 2.30424e-009 -3.24849e-009 4.79258e-010 10.2786 0.731801 0.0259123 2.30422e-009 -3.24849e-009 4.7927e-010 2.22167 -0.733487 -0.20892 -1.09248e-014 -2.17982e-013 -7.84015e-014 -64.8709 66.3191 -18.0812 16.8988 -9.20711 -32.0547 1.7354 -33.6816 5.41651 2.66438e-009 1.59925e-009 -1.19717e-009 4.6235e-009 2.79739e-009 -1.99982e-009 2.66437e-009 1.59924e-009 -1.19716e-009 -7.73091 5.47488 -0.417314 2.66438e-009 1.59924e-009 -1.19717e-009 -2.90554 0.965183 -0.102902 2.66437e-009 1.59924e-009 -1.19717e-009 -10.2786 0.731801 -0.0259123 2.66438e-009 1.59924e-009 -1.19717e-009 -2.22167 -0.733487 0.20892 -2.03217e-016 0 -3.88251e-019 23.8381 -43.6987 17.4035 -0.368218 41.8071 0.70742 -2.81861 -13.5364 -9.2465 2.03217e-016 0 3.88251e-019 0.0441025 -48.0106 -6.19099 1.79499 68.4812 -2.6749 -0.0363136 7.3473 -6.63041 
-18.1638 78.1694 172.802 -10.3242 -17.2202 167.926 19.9809 -21.9722 -1.2401 2.50117 7.54285 -2.24204 6.65749 -2.78054 5.27306 0.970913 25.9662 2.74395 -0 0 0 -0 0 0 -1.91788e-015 -2.54018e-013 -3.75246e-013 61.1049 23.6562 11.9653 -10.5663 -4.39281 18.9648 0.0116188 0.800646 0.112337 4.37628e-009 -5.49669e-009 -2.72256e-011 7.56398e-009 -9.49449e-009 -6.86588e-011 4.37628e-009 -5.49669e-009 -2.72347e-011 7.73091 5.47488 0.417314 4.37628e-009 -5.49669e-009 -2.72297e-011 2.90554 0.965183 0.102902 4.37629e-009 -5.49669e-009 -2.72279e-011 10.2786 0.731801 0.0259123 4.37627e-009 -5.49669e-009 -2.72172e-011 2.22167 -0.733487 -0.20892 -2.0112e-015 -2.54044e-013 -3.7552e-013 -64.1548 65.2183 -18.2629 16.6626 -9.02244 -31.4781 1.73618 -33.7817 5.43303 3.85817e-009 2.40036e-009 -1.31959e-009 6.68346e-009 4.18858e-009 -2.17659e-009 3.85817e-009 2.40036e-009 -1.31957e-009 -7.73091 5.47488 -0.417314 3.85817e-009 2.40036e-009 -1.31959e-009 -2.90554 0.965183 -0.102902 3.85816e-009 2.40036e-009 -1.31958e-009 -10.2786 0.731801 -0.0259123 3.85817e-009 2.40036e-009 -1.31959e-009 -2.22167 -0.733487 0.20892 -2.03217e-016 0 -3.88251e-019 23.4569 -43.0742 17.332 -0.36058 41.5571 0.725106 -2.88491 -13.6494 -9.36646 2.03217e-016 0 3.88251e-019 -0.268049 -48.7256 -6.48783 1.75887 68.239 -2.61716 -0.201364 5.67027 -5.37629 
-18.3269 78.1665 172.406 -11.4518 -16.1601 161.794 18.8659 -21.0931 -1.40859 2.44158 7.36828 -2.20952 6.36759 -2.58248 5.09368 1.45663 25.0772 2.48354 -0 0 0 -0 0 0 1.42399e-014 -2.68411e-013 -6.41722e-013 59.7522 20.1673 11.2315 -9.93154 -4.06747 17.7034 -0.00113489 2.74953 0.386499 6.12123e-009 -7.25743e-009 -6.27817e-010 1.05788e-008 -1.25336e-008 -1.1168e-009 6.12123e-009 -7.25743e-009 -6.27826e-010 7.73091 5.47488 0.417314 6.12123e-009 -7.25743e-009 -6.27825e-010 2.90554 0.965183 0.102902 6.12124e-009 -7.25743e-009 -6.2782e-010 10.2786 0.731801 0.0259123 6.12122e-009 -7.25743e-009 -6.27812e-010 2.22167 -0.733487 -0.20892 1.40916e-014 -2.68445e-013 -6.42017e-013 -62.7662 62.2066 -16.8456 16.0454 -8.62594 -29.9056 1.5843 -32.9676 5.24403 4.73872e-009 3.01282e-009 -1.27586e-009 8.19936e-009 5.24905e-009 -2.07465e-009 4.73871e-009 3.01282e-009 -1.27585e-009 -7.73091 5.47488 -0.417314 4.73872e-009 3.01281e-009 -1.27587e-009 -2.90554 0.965183 -0.102902 4.73871e-009 3.01281e-009 -1.27586e-009 -10.2786 0.731801 -0.0259123 4.73872e-009 3.01282e-009 -1.27587e-009 -2.22167 -0.733487 0.20892 -2.03217e-016 0 -3.88251e-019 21.8427 -41.2806 16.4783 -0.319739 40.032 0.709302 -2.80476 -13.294 -9.21233 2.03217e-016 0 3.88251e-019 -0.52757 -48.4616 -6.51182 1.50518 66.2954 -2.33085 -0.289814 3.53435 -3.77982 
-18.4927 78.1717 172.016 -11.9481 -15.5097 158.249 18.0676 -20.5773 -1.56046 2.41676 7.26897 -2.19788 6.1651 -2.39232 4.98726 1.90442 24.5463 2.27625 -0 0 0 -0 0 0 4.28029e-014 -2.40114e-013 -7.4102e-013 59.1425 17.4323 10.6815 -9.52418 -3.85717 16.9121 -0.020992 4.13261 0.58182 6.60436e-009 -7.41067e-009 -1.20557e-009 1.14122e-008 -1.27957e-008 -2.1184e-009 6.60437e-009 -7.41067e-009 -1.20558e-009 7.73091 5.47488 0.417314 6.60436e-009 -7.41067e-009 -1.20558e-009 2.90554 0.965183 0.102902 6.60437e-009 -7.41067e-009 -1.20557e-009 10.2786 0.731801 0.0259123 6.60436e-009 -7.41067e-009 -1.20556e-009 2.22167 -0.733487 -0.20892 4.26278e-014 -2.4015e-013 -7.41318e-013 -61.7039 60.1368 -16.2541 15.6069 -8.327 -28.847 1.51365 -32.6447 5.16558 4.73418e-009 3.05366e-009 -9.26601e-010 8.18246e-009 5.31185e-009 -1.46998e-009 4.73417e-009 3.05366e-009 -9.26591e-010 -7.73091 5.47488 -0.417314 4.73418e-009 3.05366e-009 -9.26613e-010 -2.90554 0.965183 -0.102902 4.73417e-009 3.05366e-009 -9.26602e-010 -10.2786 0.731801 -0.0259123 4.73418e-009 3.05366e-009 -9.26607e-010 -2.22167 -0.733487 0.20892 -2.03217e-016 0 -3.88251e-019 20.8476 -40.0953 16.0537 -0.295562 39.1346 0.709407 -2.78992 -13.168 -9.17443 2.03217e-016 0 3.88251e-019 -0.847401 -48.6545 -6.70007 1.36489 65.0037 -2.16342 -0.27352 1.76954 -2.38846 
